<?xml version="1.0" encoding="UTF-8" standalone="no"?>
<!-- Created with Inkscape (http://www.inkscape.org/) -->

<svg
   xmlns:dc="http://purl.org/dc/elements/1.1/"
   xmlns:cc="http://creativecommons.org/ns#"
   xmlns:rdf="http://www.w3.org/1999/02/22-rdf-syntax-ns#"
   xmlns:svg="http://www.w3.org/2000/svg"
   xmlns="http://www.w3.org/2000/svg"
   xmlns:sodipodi="http://sodipodi.sourceforge.net/DTD/sodipodi-0.dtd"
   xmlns:inkscape="http://www.inkscape.org/namespaces/inkscape"
   width="16"
   height="16"
   viewBox="0 0 16 16"
   id="svg4178"
   version="1.1"
   inkscape:version="0.91 r13725"
   sodipodi:docname="form-icon-phone.svg">
  <defs
     id="defs4180" />
  <sodipodi:namedview
     id="base"
     pagecolor="#ffffff"
     bordercolor="#666666"
     borderopacity="1.0"
     inkscape:pageopacity="0.0"
     inkscape:pageshadow="2"
     inkscape:zoom="5.12"
     inkscape:cx="89.436681"
     inkscape:cy="28.447964"
     inkscape:document-units="px"
     inkscape:current-layer="layer1"
     showgrid="false"
     inkscape:window-width="1366"
     inkscape:window-height="705"
     inkscape:window-x="-8"
     inkscape:window-y="-8"
     inkscape:window-maximized="1"
     units="px" />
  <metadata
     id="metadata4183">
    <rdf:RDF>
      <cc:Work
         rdf:about="">
        <dc:format>image/svg+xml</dc:format>
        <dc:type
           rdf:resource="http://purl.org/dc/dcmitype/StillImage" />
        <dc:title></dc:title>
      </cc:Work>
    </rdf:RDF>
  </metadata>
  <g
     inkscape:label="Layer 1"
     inkscape:groupmode="layer"
     id="layer1"
     transform="translate(0,-1036.3622)">
    <g
       id="g4853"
       transform="matrix(0.04909245,0.00548738,-0.00350155,0.04749144,71.286861,1057.0316)">
      <path
         inkscape:connector-curvature="0"
         style="fill-opacity:1"
         d="m -1196.2827,18.90244 c -36.5705,-9.2056863 -56.1772,-15.9661529 -81.1195,-27.9702969 -15.3705,-7.3975061 -29.0144,-15.5261291 -44.8543,-26.7228101 -1.0498,-0.74206 -2.016,-1.459282 -2.1473,-1.593832 -0.1312,-0.134551 -0.7029,-0.535623 -1.2704,-0.891273 -0.5675,-0.355649 -2.3927,-1.746552 -4.056,-3.0909 -1.6632,-1.344349 -4.4198,-3.496779 -6.1257,-4.783178 -4.9437,-3.72798 -24.0807,-21.546013 -30.3496,-28.257887 -12.1075,-12.962884 -25.9626,-30.260463 -33.1145,-41.342253 -0.6561,-1.01664 -2.0524,-3.08071 -3.103,-4.58682 -4.3468,-6.23195 -11.2472,-17.98605 -17.6948,-30.14123 -2.7501,-5.18462 -5.1745,-9.72253 -5.3875,-10.08425 -0.3978,-0.67547 -4.3755,-9.16177 -7.3983,-15.78404 -5.9785,-13.09777 -14.6109,-35.78007 -14.6109,-38.39129 0,-2.3018 2.4532,-7.56401 5.4652,-11.72316 7.1026,-9.80764 18.2711,-17.40626 33.5357,-22.81635 8.6896,-3.07978 23.3187,-6.26874 26.5736,-5.7927 2.3017,0.33664 9.8562,3.97565 15.5255,7.47865 6.9211,4.27648 9.7044,6.35712 15.7032,11.73881 13.7311,12.31854 21.8101,26.23032 23.863,41.09133 0.8493,6.14817 0.7697,6.30884 -7.5987,15.34559 -10.6558,11.5068 -19.2826,23.45498 -21.7433,30.11446 -1.0489,2.83865 -0.6747,4.99824 1.6797,9.69439 8.3273,16.61037 27.8908,38.65436 48.6403,54.807624 5.077,3.95239 8.2099,6.156048 16.5397,11.634171 3.1866,2.095664 13.5495,7.807602 19.8364,10.93364 4.0774,2.027433 4.0973,2.032033 6.2032,1.435597 8.056,-2.281596 21.5826,-10.049619 37.2361,-21.383928 6.8906,-4.9893 8.6618,-5.583091 13.5483,-4.54216 14.6534,3.121448 28.9965,9.431267 41.2755,18.157947 10.7697,7.653957 22.4272,21.113626 22.4272,25.89427 0,1.910816 -2.3608,12.065426 -3.8339,16.490714 -5.445,16.3576362 -15.9344,30.6948059 -29.0911,39.762755 -6.2153,4.283766 -11.2929,6.139259 -14.5538,5.31841 z"
         id="path4857" />
      <path
         inkscape:connector-curvature="0"
         style="fill-opacity:1"
         d="m -1200.8158,17.460121 c -2.4933,-0.662229 -6.251,-1.636082 -8.3506,-2.164124 -11.8759,-2.986774 -31.4022,-9.0120685 -37.2509,-11.494613 -1.067,-0.4529143 -2.1046,-0.8234797 -2.3058,-0.8234797 -0.3644,0 -4.8362,-1.7428781 -9.8307,-3.83143981 -9.2767,-3.87926109 -10.4732,-4.41985129 -18.3712,-8.30086179 -1.5747,-0.7737775 -3.9367,-1.9072377 -5.2489,-2.5188037 -1.3122,-0.611566 -3.0301,-1.466877 -3.8174,-1.900688 -0.7873,-0.433811 -2.5052,-1.354867 -3.8174,-2.046787 -4.6635,-2.459017 -17.8347,-10.467506 -23.1429,-14.071594 -1.9683,-1.336439 -4.1156,-2.769029 -4.7717,-3.183536 -1.8828,-1.189498 -10.7547,-7.778195 -15.9853,-11.87151 -6.4624,-5.057219 -26.2348,-23.271734 -31.7214,-29.221975 -2.4459,-2.652596 -4.7442,-5.118852 -5.1075,-5.48057 -1.3379,-1.33226 -9.0867,-10.395785 -11.3828,-13.313991 -1.3028,-1.65579 -2.944,-3.727445 -3.647,-4.603678 -5.4352,-6.77385 -17.6853,-24.33878 -22.1587,-31.77248 -1.2817,-2.12992 -2.8955,-4.79348 -3.5861,-5.91901 -1.563,-2.54702 -11.7365,-21.20417 -13.6676,-25.06482 -3.0368,-6.07117 -7.632,-15.95678 -9.7828,-21.04539 -0.7644,-1.80859 -2.1422,-5.06405 -3.0617,-7.23435 -1.9593,-4.62416 -2.8232,-6.88327 -6.7706,-17.7045 -3.1986,-8.76862 -3.2245,-9.03284 -1.3038,-13.31484 2.556,-5.69836 8.2638,-12.79995 13.692,-17.03529 2.9663,-2.31449 9.9849,-6.74798 12.1176,-7.65447 0.7939,-0.33744 1.7656,-0.80819 2.1593,-1.04612 1.0171,-0.61476 7.6426,-3.34698 9.0662,-3.73874 0.6562,-0.18056 1.8372,-0.58832 2.6245,-0.90613 3.7302,-1.50571 19.9474,-5.01459 23.1429,-5.00737 2.8544,0.006 8.6231,2.6414 17.5624,8.02186 6.9565,4.18706 17.2447,12.86911 22.784,19.22715 8.943,10.26472 15.0544,23.70126 15.8359,34.8168 0.2293,3.2613 0.1482,3.70752 -0.9965,5.48057 -0.6853,1.06161 -2.6591,3.38335 -4.3862,5.15941 -3.7478,3.85401 -9.4428,10.38653 -11.7096,13.43172 -0.8975,1.20572 -1.7553,2.29088 -1.9063,2.41145 -0.4695,0.37514 -3.9967,5.32046 -6.3325,8.87854 -2.4708,3.7637 -5.0838,9.43305 -5.0838,11.02994 0,3.30173 6.7373,15.14222 13.5863,23.87747 1.5819,2.0175 3.1922,4.08916 3.5784,4.60368 1.6004,2.13193 9.4066,10.84001 12.8137,14.29408 12.5296,12.702381 27.3675,24.393905 41.8362,32.965007 4.5581,2.700176 5.6985,3.316691 13.2373,7.156567 5.9205,3.015554 6.7311,3.311132 8.3506,3.045127 2.0351,-0.334266 11.3665,-4.346648 14.102,-6.063676 0.9958,-0.625065 1.9183,-1.136486 2.0499,-1.136486 0.1317,0 2.5048,-1.430428 5.2736,-3.17873 2.7687,-1.748302 5.7956,-3.643294 6.7263,-4.21109 0.9307,-0.567796 4.1847,-2.840544 7.2311,-5.050546 9.194,-6.669779 9.0162,-6.569318 11.974,-6.765899 1.4681,-0.09758 3.5197,0.05558 4.559,0.340352 1.0393,0.28477 3.6074,0.983017 5.707,1.551663 19.1136,5.176718 36.9593,15.75217 48.8203,28.931085 0.8691,0.965667 1.9422,2.150356 2.3847,2.632646 1.2212,1.330945 3.2924,4.380913 4.6641,6.868215 1.0287,1.865178 1.1962,2.667187 1.0266,4.914694 -0.7731,10.247231 -7.2409,27.164697 -13.7964,36.086656 -0.7407,1.0080258 -1.3467,1.977977 -1.3467,2.1554466 0,0.1774653 -0.3185,0.6351673 -0.7078,1.0171148 -0.3894,0.3819475 -1.8162,1.9769028 -3.1709,3.5443457 -6.7497,7.8101973 -16.6603,15.3389429 -22.2391,16.8943329 -3.0945,0.862778 -4.8491,0.748949 -10.1473,-0.658334 z"
         id="path4855" />
    </g>
  </g>
</svg>
